<?xml version="1.0" encoding="UTF-8" standalone="no"?>
<svg
   xmlns:dc="http://purl.org/dc/elements/1.1/"
   xmlns:cc="http://creativecommons.org/ns#"
   xmlns:rdf="http://www.w3.org/1999/02/22-rdf-syntax-ns#"
   xmlns:svg="http://www.w3.org/2000/svg"
   xmlns="http://www.w3.org/2000/svg"
   xmlns:sodipodi="http://sodipodi.sourceforge.net/DTD/sodipodi-0.dtd"
   xmlns:inkscape="http://www.inkscape.org/namespaces/inkscape"
   version="1.1"
   id="svg833"
   width="173.37566"
   height="173.37566"
   viewBox="0 0 173.37566 173.37566"
   sodipodi:docname="checkbox.svg"
   inkscape:version="1.0.1 (3bc2e813f5, 2020-09-07)">
  <metadata
     id="metadata839">
    <rdf:RDF>
      <cc:Work
         rdf:about="">
        <dc:format>image/svg+xml</dc:format>
        <dc:type
           rdf:resource="http://purl.org/dc/dcmitype/StillImage" />
        <dc:title></dc:title>
      </cc:Work>
    </rdf:RDF>
  </metadata>
  <defs
     id="defs837" />
  <sodipodi:namedview
     pagecolor="#ffffff"
     bordercolor="#666666"
     borderopacity="1"
     objecttolerance="10"
     gridtolerance="10"
     guidetolerance="10"
     inkscape:pageopacity="0"
     inkscape:pageshadow="2"
     inkscape:window-width="2160"
     inkscape:window-height="1346"
     id="namedview835"
     showgrid="false"
     inkscape:zoom="4.3431703"
     inkscape:cx="86.687828"
     inkscape:cy="67.142078"
     inkscape:window-x="-11"
     inkscape:window-y="-11"
     inkscape:window-maximized="1"
     inkscape:current-layer="g841" />
  <g
     inkscape:groupmode="layer"
     inkscape:label="Image"
     id="g841">
    <path
       style="fill:#000000;stroke-width:0.34015748;stroke-miterlimit:4;stroke-dasharray:none"
       d="M 82.222636,144.43372 C 81.156156,143.2545 39.418514,66.259868 39.222904,65.110862 c -0.208806,-1.226498 0.807436,-2.695538 2.08683,-3.016645 2.069151,-0.519325 1.590559,-1.310805 22.690262,37.524442 10.98836,20.224721 20.05503,36.769001 20.14815,36.765071 0.0931,-0.004 16.563144,-30.5181 36.600044,-67.809266 26.72618,-49.740725 36.65488,-67.92874688 37.27215,-68.27746988 1.0213,-0.57698 2.39352,-0.295975 3.38208,0.692587 0.54798,0.54798198 0.66789,0.98599798 0.53069,1.93847698 -0.18674,1.29636 -74.610504,140.1228419 -75.860044,141.5056619 -0.47469,0.52531 -1.07242,0.7619 -1.92492,0.7619 -0.85232,0 -1.45051,-0.2367 -1.92551,-0.7619 z"
       id="path847"
       sodipodi:nodetypes="sssscsssssss" />
  </g>
</svg>
